<?xml version="1.0" encoding="UTF-8"?>
<svg version="1.1" xmlns="http://www.w3.org/2000/svg" width="32" height="32">
<path d="M0 0 C10.56 0 21.12 0 32 0 C32 10.56 32 21.12 32 32 C21.44 32 10.88 32 0 32 C0 21.44 0 10.88 0 0 Z " fill="#FCFCFC" transform="translate(0,0)"/>
<path d="M0 0 C6.6 0 13.2 0 20 0 C19.01 0.495 19.01 0.495 18 1 C17.27840576 2.64363134 16.60648579 4.31050386 16 6 C16.7425 5.896875 17.485 5.79375 18.25 5.6875 C21 6 21 6 23.3125 8.375 C25 11 25 11 25 13 C24.34 13 23.68 13 23 13 C23 13.66 23 14.32 23 15 C22.01 15.33 21.02 15.66 20 16 C19.34 15.34 18.68 14.68 18 14 C15.93125966 13.3574765 15.93125966 13.3574765 14 13 C14.33 14.98 14.66 16.96 15 19 C15.5775 18.649375 16.155 18.29875 16.75 17.9375 C19.39392586 16.83586422 20.36171148 17.03262754 23 18 C23.66 18.33 24.32 18.66 25 19 C25 19.99 25 20.98 25 22 C22.18491034 24.35681925 20.2444054 25.96888986 16.5 26.0625 C12.26064322 24.26077337 9.243955 21.243955 6 18 C5.34 18.33 4.68 18.66 4 19 C4 18.34 4 17.68 4 17 C3.34 17 2.68 17 2 17 C1.67 17.66 1.34 18.32 1 19 C-0.25497056 15.23508833 -0.10661648 11.72793525 -0.0625 7.8125 C-0.041875 5.234375 -0.02125 2.65625 0 0 Z " fill="#FCFBF9" transform="translate(0,0)"/>
<path d="M0 0 C0 3 0 6 0 9 C0.5775 8.649375 1.155 8.29875 1.75 7.9375 C4.39392586 6.83586422 5.36171148 7.03262754 8 8 C8.66 8.33 9.32 8.66 10 9 C10 9.99 10 10.98 10 12 C7.18491034 14.35681925 5.2444054 15.96888986 1.5 16.0625 C-2.05996127 14.54951646 -4.322372 12.79933836 -7 10 C-8.0625 6.375 -8.0625 6.375 -8 3 C-6.00245367 -0.44021868 -3.74774904 -0.30387154 0 0 Z " fill="#317DD2" transform="translate(15,10)"/>
<path d="M0 0 C2.2109885 0.42793326 3.98119242 0.99059621 6 2 C6 2.99 6 3.98 6 5 C1.10722101 9.09628009 1.10722101 9.09628009 -2.875 8.75 C-3.57625 8.5025 -4.2775 8.255 -5 8 C-5 6.02 -5 4.04 -5 2 C-4.360625 1.855625 -3.72125 1.71125 -3.0625 1.5625 C-1.02454854 1.18992819 -1.02454854 1.18992819 0 0 Z " fill="#331FA8" transform="translate(19,17)"/>
<path d="M0 0 C1.9375 1.4375 1.9375 1.4375 3 3 C3 3.66 3 4.32 3 5 C2.34 5 1.68 5 1 5 C1 5.66 1 6.32 1 7 C0.01 7.33 -0.98 7.66 -2 8 C-4.4375 6.25 -4.4375 6.25 -7 4 C-8.32901064 2.99426222 -9.66073801 1.99204592 -11 1 C-7.2263442 -1.56608594 -4.31804867 -1.02062969 0 0 Z " fill="#F666BC" transform="translate(22,8)"/>
<path d="M0 0 C2.76276177 0.52268466 5.3260876 1.10869587 8 2 C8 2.66 8 3.32 8 4 C5.6875 5.6875 5.6875 5.6875 3 7 C2.01 6.67 1.02 6.34 0 6 C0 4.02 0 2.04 0 0 Z " fill="#F3EAF8" transform="translate(14,13)"/>
<path d="M0 0 C2 2 2 2 2 5 C4.475 5.99 4.475 5.99 7 7 C7 8.32 7 9.64 7 11 C3.64189605 9.61043975 1.81413448 8.17473533 0 5 C-0.1875 2.25 -0.1875 2.25 0 0 Z " fill="#44C4ED" transform="translate(7,13)"/>
<path d="M0 0 C2.16874252 0.50603992 3.99967627 0.99983813 6 2 C6 2.99 6 3.98 6 5 C3.5 6.6875 3.5 6.6875 1 8 C0 1.125 0 1.125 0 0 Z " fill="#A757E9" transform="translate(19,17)"/>
<path d="M0 0 C-1 2 -2 4 -3 6 C-5.21736634 4.89131683 -7.03617993 3.50559539 -9 2 C-5.86501708 0.14223235 -3.62528568 -0.20140476 0 0 Z " fill="#E7B390" transform="translate(20,7)"/>
<path d="M0 0 C1.2065625 0.0309375 1.2065625 0.0309375 2.4375 0.0625 C2.4375 3.16801666 1.8981285 4.41511084 0.4375 7.0625 C0.14875 6.44375 -0.14 5.825 -0.4375 5.1875 C-1.49970042 2.92924235 -1.49970042 2.92924235 -3.5625 1.0625 C-2.5625 0.0625 -2.5625 0.0625 0 0 Z " fill="#2F319C" transform="translate(12.5625,9.9375)"/>
<path d="M0 0 C1.65 0 3.3 0 5 0 C5 0.99 5 1.98 5 3 C3 4.6875 3 4.6875 1 6 C0 1.125 0 1.125 0 0 Z " fill="#FA8CA3" transform="translate(17,8)"/>
<path d="M0 0 C0.66 0 1.32 0 2 0 C2 2.31 2 4.62 2 7 C0.68 7.33 -0.64 7.66 -2 8 C-1.34 7.67 -0.68 7.34 0 7 C-0.185625 6.030625 -0.37125 5.06125 -0.5625 4.0625 C-0.706875 3.051875 -0.85125 2.04125 -1 1 C-0.67 0.67 -0.34 0.34 0 0 Z " fill="#6B3FC4" transform="translate(18,18)"/>
<path d="M0 0 C2.64 0.99 5.28 1.98 8 3 C7.34 3.66 6.68 4.32 6 5 C3.73725212 4.64644564 2.04911148 4.02455574 0 3 C0 2.01 0 1.02 0 0 Z " fill="#EBF3F9" transform="translate(11,23)"/>
<path d="M0 0 C0.99 0.33 1.98 0.66 3 1 C2.01 1.495 2.01 1.495 1 2 C1 2.99 1 3.98 1 5 C-0.65 4.67 -2.3 4.34 -4 4 C-2.68 2.68 -1.36 1.36 0 0 Z " fill="#F7EFF8" transform="translate(23,22)"/>
</svg>
